<svg xmlns="http://www.w3.org/2000/svg" xmlns:xlink="http://www.w3.org/1999/xlink" width="500" zoomAndPan="magnify" viewBox="0 0 375 374.999991" height="500" preserveAspectRatio="xMidYMid meet" version="1.0"><defs><g/><clipPath id="7b2496c989"><path d="M 67.402344 70.726562 L 300.261719 70.726562 L 300.261719 303.589844 L 67.402344 303.589844 Z M 67.402344 70.726562 " clip-rule="nonzero"/></clipPath><clipPath id="3fa95e8ccf"><path d="M 183.832031 70.726562 C 119.527344 70.726562 67.402344 122.855469 67.402344 187.15625 C 67.402344 251.460938 119.527344 303.589844 183.832031 303.589844 C 248.136719 303.589844 300.261719 251.460938 300.261719 187.15625 C 300.261719 122.855469 248.136719 70.726562 183.832031 70.726562 Z M 183.832031 70.726562 " clip-rule="nonzero"/></clipPath><clipPath id="1d9c0ded86"><path d="M 148 91 L 226 91 L 226 247 L 148 247 Z M 148 91 " clip-rule="nonzero"/></clipPath><clipPath id="0916caa511"><path d="M 146.0625 91.300781 L 224.769531 86.441406 L 234.511719 244.230469 L 155.804688 249.089844 Z M 146.0625 91.300781 " clip-rule="nonzero"/></clipPath><clipPath id="06aed11383"><path d="M 146.0625 91.300781 L 224.769531 86.441406 L 234.511719 244.230469 L 155.804688 249.089844 Z M 146.0625 91.300781 " clip-rule="nonzero"/></clipPath><clipPath id="54df958ab1"><path d="M 146.0625 171.089844 L 178.195312 171.089844 L 178.195312 203.226562 L 146.0625 203.226562 Z M 146.0625 171.089844 " clip-rule="nonzero"/></clipPath><clipPath id="11eda0027b"><path d="M 162.128906 171.089844 C 153.253906 171.089844 146.0625 178.285156 146.0625 187.15625 C 146.0625 196.03125 153.253906 203.226562 162.128906 203.226562 C 171.003906 203.226562 178.195312 196.03125 178.195312 187.15625 C 178.195312 178.285156 171.003906 171.089844 162.128906 171.089844 Z M 162.128906 171.089844 " clip-rule="nonzero"/></clipPath></defs><g clip-path="url(#7b2496c989)"><g clip-path="url(#3fa95e8ccf)"><path fill="#003a67" d="M 67.402344 70.726562 L 300.261719 70.726562 L 300.261719 303.589844 L 67.402344 303.589844 Z M 67.402344 70.726562 " fill-opacity="1" fill-rule="nonzero"/></g></g><g clip-path="url(#1d9c0ded86)"><g clip-path="url(#0916caa511)"><g clip-path="url(#06aed11383)"><path fill="#ffffff" d="M 155.945312 91.515625 C 150.445312 92.769531 147.53125 100.644531 149.34375 109.070312 C 151.164062 117.5 157.0625 123.300781 162.5625 122.050781 C 168.070312 120.800781 171.074219 113.007812 169.269531 104.589844 C 167.449219 96.164062 161.445312 90.273438 155.945312 91.515625 Z M 178.539062 93.570312 C 173.859375 94.308594 171.011719 100.28125 172.070312 106.878906 C 173.164062 113.484375 177.808594 118.195312 182.480469 117.46875 C 187.164062 116.730469 190.027344 110.765625 188.949219 104.160156 C 187.882812 97.550781 183.230469 92.835938 178.539062 93.570312 Z M 197.847656 99.867188 C 194.042969 100.097656 191.214844 104.074219 191.503906 108.832031 C 191.796875 113.585938 195.109375 117.273438 198.910156 117.046875 C 202.71875 116.804688 205.539062 112.730469 205.246094 107.984375 C 204.953125 103.226562 201.652344 99.625 197.847656 99.867188 Z M 210.558594 109.429688 C 208.175781 109.796875 206.117188 112.398438 205.628906 115.746094 C 205.054688 119.566406 206.878906 122.945312 209.640625 123.28125 C 212.40625 123.609375 215.09375 120.722656 215.652344 116.898438 C 216.207031 113.066406 214.410156 109.675781 211.636719 109.363281 C 211.292969 109.320312 210.898438 109.375 210.558594 109.429688 Z M 220.582031 118.566406 C 218.203125 118.933594 216.042969 121.539062 215.554688 124.886719 C 214.988281 128.707031 216.800781 132.085938 219.566406 132.421875 C 222.332031 132.753906 225.023438 129.964844 225.582031 126.140625 C 226.132812 122.300781 224.34375 118.917969 221.570312 118.601562 C 221.222656 118.558594 220.921875 118.511719 220.582031 118.566406 Z M 175.933594 127.925781 C 163.621094 128.683594 156.996094 135.660156 157.703125 147.082031 C 158.367188 157.851562 164.714844 163.140625 170.3125 167.785156 C 176.035156 172.527344 181.007812 176.59375 181.59375 186.105469 C 182.027344 193.140625 178.996094 197.433594 175.503906 202.347656 C 171.453125 208.035156 166.851562 214.511719 167.878906 225.679688 C 169.257812 240.601562 177.289062 247.664062 191.746094 246.769531 C 204.019531 246.011719 210.625 233.386719 209.898438 221.605469 C 209.117188 208.976562 212.269531 200.695312 215.652344 191.886719 C 219.15625 182.777344 222.820312 173.363281 221.527344 159.398438 C 219.039062 132.464844 190.59375 127.019531 175.933594 127.925781 Z M 175.933594 127.925781 " fill-opacity="1" fill-rule="nonzero"/></g></g></g><g clip-path="url(#54df958ab1)"><g clip-path="url(#11eda0027b)"><path fill="#ec7735" d="M 146.0625 171.089844 L 178.195312 171.089844 L 178.195312 203.226562 L 146.0625 203.226562 Z M 146.0625 171.089844 " fill-opacity="1" fill-rule="nonzero"/></g></g><g fill="#fffffd" fill-opacity="1"><g transform="translate(146.271286, 285.392243)"><g><path d="M 14.265625 -30.8125 C 17.515625 -30.8125 20.351562 -30.164062 22.78125 -28.875 C 25.207031 -27.59375 27.085938 -25.785156 28.421875 -23.453125 C 29.753906 -21.128906 30.421875 -18.445312 30.421875 -15.40625 C 30.421875 -12.394531 29.753906 -9.71875 28.421875 -7.375 C 27.085938 -5.03125 25.195312 -3.210938 22.75 -1.921875 C 20.3125 -0.640625 17.484375 0 14.265625 0 L 2.71875 0 L 2.71875 -30.8125 Z M 13.78125 -6.5 C 16.625 -6.5 18.832031 -7.269531 20.40625 -8.8125 C 21.988281 -10.363281 22.78125 -12.5625 22.78125 -15.40625 C 22.78125 -18.238281 21.988281 -20.445312 20.40625 -22.03125 C 18.832031 -23.613281 16.625 -24.40625 13.78125 -24.40625 L 10.21875 -24.40625 L 10.21875 -6.5 Z M 13.78125 -6.5 "/></g></g></g><g fill="#fffffd" fill-opacity="1"><g transform="translate(175.671965, 285.392243)"><g><path d="M 22.78125 -30.8125 L 22.78125 -24.796875 L 10.21875 -24.796875 L 10.21875 -18.296875 L 19.625 -18.296875 L 19.625 -12.46875 L 10.21875 -12.46875 L 10.21875 0 L 2.71875 0 L 2.71875 -30.8125 Z M 22.78125 -30.8125 "/></g></g></g><g fill="#fffffd" fill-opacity="1"><g transform="translate(197.17389, 285.392243)"><g><path d="M 10.09375 -30.8125 L 10.09375 -12.375 C 10.09375 -10.53125 10.546875 -9.109375 11.453125 -8.109375 C 12.359375 -7.117188 13.691406 -6.625 15.453125 -6.625 C 17.203125 -6.625 18.546875 -7.117188 19.484375 -8.109375 C 20.421875 -9.109375 20.890625 -10.53125 20.890625 -12.375 L 20.890625 -30.8125 L 28.390625 -30.8125 L 28.390625 -12.421875 C 28.390625 -9.671875 27.804688 -7.34375 26.640625 -5.4375 C 25.472656 -3.539062 23.898438 -2.109375 21.921875 -1.140625 C 19.941406 -0.171875 17.738281 0.3125 15.3125 0.3125 C 12.882812 0.3125 10.710938 -0.160156 8.796875 -1.109375 C 6.878906 -2.066406 5.363281 -3.503906 4.25 -5.421875 C 3.144531 -7.335938 2.59375 -9.671875 2.59375 -12.421875 L 2.59375 -30.8125 Z M 10.09375 -30.8125 "/></g></g></g><g fill="#ffffff" fill-opacity="1"><g transform="translate(175.386116, 296.741977)"><g><path d="M 5.75 -1.21875 L 3.0625 -1.21875 L 2.65625 0 L 0 0 L 2.953125 -8.078125 L 5.875 -8.078125 L 8.8125 0 L 6.140625 0 Z M 5.125 -3.125 L 4.40625 -5.375 L 3.671875 -3.125 Z M 5.125 -3.125 "/></g></g></g><g fill="#ffffff" fill-opacity="1"><g transform="translate(184.198494, 296.741977)"><g><path d="M 7.171875 -5.296875 C 7.171875 -4.796875 7.050781 -4.335938 6.8125 -3.921875 C 6.582031 -3.503906 6.238281 -3.171875 5.78125 -2.921875 C 5.320312 -2.679688 4.765625 -2.5625 4.109375 -2.5625 L 3.109375 -2.5625 L 3.109375 0 L 0.5625 0 L 0.5625 -8.078125 L 4.109375 -8.078125 C 5.097656 -8.078125 5.851562 -7.820312 6.375 -7.3125 C 6.90625 -6.8125 7.171875 -6.140625 7.171875 -5.296875 Z M 3.828125 -4.5625 C 4.347656 -4.5625 4.609375 -4.804688 4.609375 -5.296875 C 4.609375 -5.796875 4.347656 -6.046875 3.828125 -6.046875 L 3.109375 -6.046875 L 3.109375 -4.5625 Z M 3.828125 -4.5625 "/></g></g></g><g fill="#ffffff" fill-opacity="1"><g transform="translate(191.597246, 296.741977)"><g><path d="M 7.171875 -5.296875 C 7.171875 -4.796875 7.050781 -4.335938 6.8125 -3.921875 C 6.582031 -3.503906 6.238281 -3.171875 5.78125 -2.921875 C 5.320312 -2.679688 4.765625 -2.5625 4.109375 -2.5625 L 3.109375 -2.5625 L 3.109375 0 L 0.5625 0 L 0.5625 -8.078125 L 4.109375 -8.078125 C 5.097656 -8.078125 5.851562 -7.820312 6.375 -7.3125 C 6.90625 -6.8125 7.171875 -6.140625 7.171875 -5.296875 Z M 3.828125 -4.5625 C 4.347656 -4.5625 4.609375 -4.804688 4.609375 -5.296875 C 4.609375 -5.796875 4.347656 -6.046875 3.828125 -6.046875 L 3.109375 -6.046875 L 3.109375 -4.5625 Z M 3.828125 -4.5625 "/></g></g></g></svg>